<svg id="fire" xmlns="http://www.w3.org/2000/svg" width="39" height="47.83" viewBox="0 0 39 47.83">
  <path id="Path_9207" data-name="Path 9207" d="M47.911,23.327a19.6,19.6,0,0,0,5.85,5.126S50.893,4.21,69.583,0c-4.788,17.574,6.091,22.53,10.057,13.245C86.262,22.088,81.233,29.8,81.233,29.8c2.716.391,5-2.576,5-2.576.02.365.032.733.032,1.1a19.5,19.5,0,1,1-38.351-5Z" transform="translate(-47.262 0)" fill="#ff6536"/>
  <path id="Path_9208" data-name="Path 9208" d="M278.713,27.226s-2.661,2.967-5.83,2.576c0,0,5.867-7.714-1.86-16.556C266.4,22.53,253.7,17.574,259.291,0A27.6,27.6,0,0,0,256,.842V47.83c12.565,0,22.75-8.73,22.75-19.5C278.75,27.96,278.737,27.592,278.713,27.226Z" transform="translate(-239.75 0)" fill="#ff421d"/>
  <path id="Path_9209" data-name="Path 9209" d="M164.456,290.137a9.977,9.977,0,1,0,16.641-7.426c-3.858,5.241-9.355-2.709-5.071-8.515C176.026,274.2,164.456,275.646,164.456,290.137Z" transform="translate(-154.933 -252.284)" fill="#fbbf00"/>
  <path id="Path_9210" data-name="Path 9210" d="M265.977,290.137a9.952,9.952,0,0,0-3.314-7.426c-3.858,5.241-9.355-2.709-5.071-8.515a10.039,10.039,0,0,0-1.593.383v25.535A9.977,9.977,0,0,0,265.977,290.137Z" transform="translate(-237.413 -252.284)" fill="#ffa900"/>
</svg>
