<svg xmlns="http://www.w3.org/2000/svg" width="41.873" height="51.852" viewBox="0 0 41.873 51.852">
  <g id="_15698-01" data-name="15698-01" transform="translate(0.5 0.5)">
    <path id="Path_27" data-name="Path 27" d="M19.833,31.7h-6.7a.814.814,0,0,1-.445-1.5h0a6.476,6.476,0,0,0,1.657-2.452,4.6,4.6,0,0,1-3.428-.17,3.787,3.787,0,0,1-2.235-2.4c-.5-1.657,0-3.873,1.468-6.088a13.777,13.777,0,0,1,6.05-5.227.833.833,0,0,1,.568,0,13.777,13.777,0,0,1,6.05,5.227c1.439,2.216,1.969,4.431,1.468,6.088a3.787,3.787,0,0,1-2.244,2.4,4.6,4.6,0,0,1-3.409.161.149.149,0,0,0,.057.142,6.249,6.249,0,0,0,1.648,2.32.824.824,0,0,1,.3.947A.8.8,0,0,1,19.833,31.7Zm-4.9-1.61h3.115a12.356,12.356,0,0,1-.824-1.477,7.12,7.12,0,0,1-.445-2.216.947.947,0,0,1,.436-.881.8.8,0,0,1,.947.066,2.841,2.841,0,0,0,3.286.521,2.149,2.149,0,0,0,1.316-1.373c.36-1.174-.114-2.945-1.269-4.734a12.707,12.707,0,0,0-4.971-4.469,12.65,12.65,0,0,0-4.971,4.46c-1.155,1.78-1.629,3.551-1.278,4.734A2.159,2.159,0,0,0,11.6,26.091a2.841,2.841,0,0,0,3.3-.54.8.8,0,0,1,.947-.133.824.824,0,0,1,.445.8A7.442,7.442,0,0,1,15.9,28.4,12.413,12.413,0,0,1,14.929,30.087Z" transform="translate(-0.764 -1.047)" fill="#3597e2" stroke="#3597e2" stroke-width="1"/>
    <path id="Path_28" data-name="Path 28" d="M9.064,10.129H5.134a.814.814,0,0,1,0-1.629H9.064a.814.814,0,1,1,0,1.629Z" transform="translate(-0.542 -0.764)" fill="#3597e2" stroke="#3597e2" stroke-width="1"/>
    <path id="Path_29" data-name="Path 29" d="M3.954,12.753a.824.824,0,0,1-.767-1.1l2.9-7.7a1,1,0,0,1,1.95,0l2.784,7.7a.815.815,0,0,1-1.534.549L7.041,6.012,4.712,12.223A.814.814,0,0,1,3.954,12.753Z" transform="translate(-0.479 -0.482)" fill="#3597e2" stroke="#3597e2" stroke-width="1"/>
    <path id="Path_30" data-name="Path 30" d="M29.244,42.619H25.314a.814.814,0,0,1,0-1.629h3.929a.814.814,0,0,1,0,1.629Z" transform="translate(-1.615 -2.491)" fill="#3597e2" stroke="#3597e2" stroke-width="1"/>
    <path id="Path_31" data-name="Path 31" d="M27.208,47.465h0a1.032,1.032,0,0,1-.947-.776l-2.793-7.7a.814.814,0,0,1,.5-.994.8.8,0,0,1,1.042.492l2.206,6.136,2.329-6.211A.824.824,0,0,1,30.6,38a.814.814,0,0,1,.483,1.042l-2.9,7.707a1.042,1.042,0,0,1-.975.72Z" transform="translate(-1.558 -2.329)" fill="#3597e2" stroke="#3597e2" stroke-width="1"/>
    <path id="Path_32" data-name="Path 32" d="M29.89,48.127H3.171A2.841,2.841,0,0,1,.33,45.286V3.171A2.841,2.841,0,0,1,3.171.33H29.89a2.841,2.841,0,0,1,2.841,2.841V45.3a2.841,2.841,0,0,1-2.841,2.831ZM3.171,1.324A1.894,1.894,0,0,0,1.324,3.218V45.3a1.894,1.894,0,0,0,1.894,1.894H29.89A1.894,1.894,0,0,0,31.784,45.3V3.171A1.894,1.894,0,0,0,29.89,1.324Z" transform="translate(-0.33 -0.33)" fill="#3597e2" stroke="#3597e2" stroke-width="1"/>
    <path id="Path_33" data-name="Path 33" d="M34.612,51.312l-3.267-.388a.492.492,0,0,1-.426-.549.473.473,0,0,1,.54-.426l3.267.4a1.894,1.894,0,0,0,2.064-1.619l5.037-41.86a1.894,1.894,0,0,0-1.619-2.055l-3.371-.407a.492.492,0,0,1-.426-.549.483.483,0,0,1,.54-.426l3.371.407A2.841,2.841,0,0,1,42.793,6.98L37.756,48.812A2.841,2.841,0,0,1,34.612,51.312Z" transform="translate(-1.956 -0.495)" fill="#3597e2" stroke="#3597e2" stroke-width="1"/>
  </g>
</svg>
