<?xml version="1.0" encoding="utf-8"?>
<!-- Generator: Adobe Illustrator 23.0.5, SVG Export Plug-In . SVG Version: 6.00 Build 0)  -->
<svg version="1.1" id="Layer_1" xmlns="http://www.w3.org/2000/svg" xmlns:xlink="http://www.w3.org/1999/xlink" x="0px" y="0px"
	 viewBox="0 0 594.6 639.2" style="enable-background:new 0 0 594.6 639.2;" xml:space="preserve">
<style type="text/css">
	.st0{fill:#CED9DF;}
	.st1{opacity:0.25;}
	.st2{fill:none;}
	.st3{fill:#231F20;}
	.st4{fill-rule:evenodd;clip-rule:evenodd;fill:#231F20;}
	.st5{fill:#EBEFF2;}
	.st6{fill:url(#SVGID_1_);}
	.st7{fill:#A9BFC4;}
	.st8{fill:#899DA6;}
	.st9{fill:#AEC9D3;}
	.st10{fill:#E3E4E9;}
	.st11{fill:#F1F5F6;}
	.st12{fill:#7F9AA5;}
	.st13{fill:#88A4B1;}
	.st14{fill:#C5CDD3;}
	.st15{fill:#688D94;}
	.st16{fill:none;stroke:#688D94;stroke-width:5;stroke-linecap:round;stroke-miterlimit:10;}
	.st17{fill:#CFD9DB;}
	.st18{fill:#8BA7B2;}
	.st19{fill:#DFE8EA;}
	.st20{fill:#C1E1EA;}
</style>
<path class="st0" d="M240.8,459h231.9c7,0,12.6-5.7,12.6-12.6l0,0V109.8c0-7-5.7-12.6-12.6-12.6l0,0H240.8c-7,0-12.6,5.7-12.6,12.6
	l0,0v336.5C228.1,453.3,233.8,459,240.8,459z"/>
<g class="st1">
	<path class="st2" d="M137.1,566.6c3.1,0.8,6.3,1.3,9.6,1.3h40.2v-45h-30.6L137.1,566.6z"/>
	<rect x="176.4" y="543.8" class="st3" width="7.5" height="4.5"/>
	<rect x="162.9" y="543.8" class="st3" width="7.5" height="4.5"/>
	<path class="st4" d="M150,543.8l-1.4,4.5c1.4,0,2.8,0,4.2,0h4.1v-4.5H150z"/>
	<rect x="186.9" y="522.9" class="st2" width="40.5" height="45"/>
	<rect x="217" y="543.8" class="st3" width="7.5" height="4.5"/>
	<rect x="203.5" y="543.8" class="st3" width="7.5" height="4.5"/>
	<rect x="190" y="543.8" class="st3" width="7.5" height="4.5"/>
	<rect x="227.5" y="522.9" class="st2" width="40.5" height="45"/>
	<rect x="257.5" y="543.8" class="st3" width="7.5" height="4.5"/>
	<rect x="244" y="543.8" class="st3" width="7.5" height="4.5"/>
	<rect x="230.6" y="543.8" class="st3" width="7.5" height="4.5"/>
	<rect x="268" y="522.9" class="st2" width="40.5" height="45"/>
	<rect x="298" y="543.8" class="st3" width="7.5" height="4.5"/>
	<rect x="284.6" y="543.8" class="st3" width="7.5" height="4.5"/>
	<rect x="271.1" y="543.8" class="st3" width="7.5" height="4.5"/>
	<rect x="308.6" y="522.9" class="st2" width="40.5" height="45"/>
	<rect x="338.6" y="543.8" class="st3" width="7.5" height="4.5"/>
	<rect x="325.1" y="543.8" class="st3" width="7.5" height="4.5"/>
	<rect x="311.6" y="543.8" class="st3" width="7.5" height="4.5"/>
	<path class="st2" d="M349.1,567.9h28.8c0.8,0,1.7-0.1,2.5-0.1c1.6-0.1,3.2-0.3,4.8-0.6c0.8-0.2,1.5-0.4,2.3-0.5s1.5-0.5,2.2-0.7
		c5.9-2,11.2-5.5,15.2-10.3l-36.5-32.8h-19.3V567.9z"/>
	<path class="st4" d="M378.4,543.7l2,4.3c2.8-0.3,5.4-1.4,7.6-3.1l-3.2-3.6C382.9,542.7,380.7,543.6,378.4,543.7z"/>
	<polygon class="st4" points="365.6,543.8 365.6,548.3 373.8,548.3 372.8,543.8 	"/>
	<rect x="352.2" y="543.8" class="st3" width="7.5" height="4.5"/>
	<path class="st2" d="M404.9,555.7c2-2.4,3.7-5,5.1-7.8c1.3-2.8,2.3-5.7,2.9-8.8l0.4-2.4c0.1-0.8,0.1-1.7,0.2-2.5
		c0.1-1.7,0.1-3.4,0.1-5v-28.5h-45v22.2L404.9,555.7z"/>
	<rect x="389.4" y="503.7" class="st3" width="4.5" height="7.5"/>
	<polygon class="st4" points="389.4,524.6 393.9,525 393.9,517.2 389.4,517.2 	"/>
	<path class="st4" d="M388.3,536.9l3.9,2.8c0.6-1.2,1.1-2.6,1.3-3.9c0.2-1.4,0.3-2.7,0.3-4.1l-4.4-1.5c0,1.2,0,2.3-0.1,3.5
		C389.1,534.8,388.8,535.9,388.3,536.9z"/>
	<rect x="368.5" y="460.2" class="st2" width="45" height="40.5"/>
	<rect x="389.4" y="463.2" class="st3" width="4.5" height="7.5"/>
	<rect x="389.4" y="476.7" class="st3" width="4.5" height="7.5"/>
	<rect x="389.4" y="490.1" class="st3" width="4.5" height="7.5"/>
	<rect x="368.5" y="419.6" class="st2" width="45" height="40.5"/>
	<rect x="389.4" y="422.6" class="st3" width="4.5" height="7.5"/>
	<rect x="389.4" y="436.1" class="st3" width="4.5" height="7.5"/>
	<rect x="389.4" y="449.6" class="st3" width="4.5" height="7.5"/>
	<rect x="368.5" y="379.1" class="st2" width="45" height="40.5"/>
	<rect x="389.4" y="382.1" class="st3" width="4.5" height="7.5"/>
	<rect x="389.4" y="395.6" class="st3" width="4.5" height="7.5"/>
	<rect x="389.4" y="409" class="st3" width="4.5" height="7.5"/>
	<rect x="368.5" y="338.6" class="st2" width="45" height="40.5"/>
	<rect x="389.4" y="341.6" class="st3" width="4.5" height="7.5"/>
	<rect x="389.4" y="355.1" class="st3" width="4.5" height="7.5"/>
	<rect x="389.4" y="368.5" class="st3" width="4.5" height="7.5"/>
	<rect x="368.5" y="298" class="st2" width="45" height="40.5"/>
	<rect x="389.4" y="301" class="st3" width="4.5" height="7.5"/>
	<rect x="389.4" y="314.5" class="st3" width="4.5" height="7.5"/>
	<rect x="389.4" y="328" class="st3" width="4.5" height="7.5"/>
	<rect x="368.5" y="257.5" class="st2" width="45" height="40.5"/>
	<rect x="389.4" y="260.5" class="st3" width="4.5" height="7.5"/>
	<rect x="389.4" y="274" class="st3" width="4.5" height="7.5"/>
	<rect x="389.4" y="287.4" class="st3" width="4.5" height="7.5"/>
	<rect x="368.5" y="216.9" class="st2" width="45" height="40.5"/>
	<rect x="389.4" y="219.9" class="st3" width="4.5" height="7.5"/>
	<rect x="389.4" y="233.4" class="st3" width="4.5" height="7.5"/>
	<rect x="389.4" y="246.9" class="st3" width="4.5" height="7.5"/>
	<path class="st2" d="M413.5,216.9v-19.6c0-0.9,0-1.7-0.1-2.5s-0.1-1.7-0.2-2.5c-0.2-1.6-0.5-3.1-0.9-4.7
		c-3.1-12.3-12.5-22-24.7-25.3L368.4,206v11L413.5,216.9L413.5,216.9z"/>
	<path class="st4" d="M386.3,189.1l3.5-3.3c-1.9-2.1-4.3-3.6-7-4.3l-2.4,4.1C382.7,186.1,384.7,187.3,386.3,189.1L386.3,189.1z"/>
	<path class="st4" d="M389.4,200.8l4.5-1.1c0-1.4-0.1-2.8-0.1-4.2s-0.3-2.8-0.7-4.1l-4.2,2.4c0.3,1.1,0.4,2.3,0.4,3.5L389.4,200.8
		L389.4,200.8z"/>
	<rect x="389.4" y="206.3" class="st3" width="4.5" height="7.5"/>
	<path class="st2" d="M387.6,162.4c-3.1-0.8-6.3-1.3-9.6-1.3h-40.3v45h30.7L387.6,162.4z"/>
	<rect x="340.8" y="180.7" class="st3" width="7.5" height="4.5"/>
	<rect x="354.3" y="180.7" class="st3" width="7.5" height="4.5"/>
	<path class="st4" d="M374.8,185.2l1.3-4.5c-1.4,0-2.8,0-4.2,0h-4.2v4.5H374.8z"/>
	<rect x="297.2" y="161.1" class="st2" width="40.5" height="45"/>
	<rect x="300.2" y="180.7" class="st3" width="7.5" height="4.5"/>
	<rect x="313.7" y="180.7" class="st3" width="7.5" height="4.5"/>
	<rect x="327.2" y="180.7" class="st3" width="7.5" height="4.5"/>
	<rect x="256.7" y="161.1" class="st2" width="40.5" height="45"/>
	<rect x="259.7" y="180.7" class="st3" width="7.5" height="4.5"/>
	<rect x="273.2" y="180.7" class="st3" width="7.5" height="4.5"/>
	<rect x="286.7" y="180.7" class="st3" width="7.5" height="4.5"/>
	<rect x="216.2" y="161.1" class="st2" width="40.5" height="45"/>
	<rect x="219.2" y="180.7" class="st3" width="7.5" height="4.5"/>
	<rect x="232.7" y="180.7" class="st3" width="7.5" height="4.5"/>
	<rect x="246.1" y="180.7" class="st3" width="7.5" height="4.5"/>
	<rect x="175.6" y="161.1" class="st2" width="40.5" height="45"/>
	<rect x="178.6" y="180.7" class="st3" width="7.5" height="4.5"/>
	<rect x="192.1" y="180.7" class="st3" width="7.5" height="4.5"/>
	<rect x="205.6" y="180.7" class="st3" width="7.5" height="4.5"/>
	<path class="st2" d="M175.6,161.1h-28.8c-0.8,0-1.7,0.1-2.5,0.1c-1.6,0.1-3.2,0.3-4.8,0.6c-0.8,0.2-1.5,0.4-2.3,0.5
		s-1.5,0.5-2.2,0.7c-5.9,2-11.2,5.5-15.2,10.3l36.5,32.8h19.4L175.6,161.1L175.6,161.1z"/>
	<path class="st4" d="M146.4,185.2l-2-4.3c-2.8,0.3-5.4,1.4-7.6,3.1l3.2,3.6C141.8,186.2,144,185.4,146.4,185.2z"/>
	<polygon class="st4" points="159.1,185.2 159.1,180.7 151,180.7 151.9,185.2 	"/>
	<rect x="165" y="180.7" class="st3" width="7.5" height="4.5"/>
	<path class="st2" d="M119.8,173.3c-2,2.4-3.7,5-5.1,7.8c-1.3,2.8-2.3,5.7-2.9,8.8l-0.4,2.4c-0.1,0.8-0.1,1.6-0.2,2.5
		c-0.1,1.6-0.1,3.4-0.1,5v28.5h45v-22.1L119.8,173.3z"/>
	<rect x="130.9" y="217.7" class="st3" width="4.5" height="7.5"/>
	<polygon class="st4" points="135.4,204.4 130.9,204 130.9,211.8 135.4,211.8 	"/>
	<path class="st4" d="M136.5,192l-3.9-2.8c-0.6,1.2-1.1,2.6-1.3,3.9c-0.2,1.4-0.3,2.7-0.3,4.1l4.4,1.5c0-1.2,0-2.3,0.1-3.5
		C135.6,194.2,136,193.1,136.5,192z"/>
	<rect x="111.3" y="228.3" class="st2" width="45" height="40.5"/>
	<rect x="130.9" y="258.3" class="st3" width="4.5" height="7.5"/>
	<rect x="130.9" y="244.8" class="st3" width="4.5" height="7.5"/>
	<rect x="130.9" y="231.3" class="st3" width="4.5" height="7.5"/>
	<rect x="111.3" y="268.8" class="st2" width="45" height="40.5"/>
	<rect x="130.9" y="298.8" class="st3" width="4.5" height="7.5"/>
	<rect x="130.9" y="285.3" class="st3" width="4.5" height="7.5"/>
	<rect x="130.9" y="271.9" class="st3" width="4.5" height="7.5"/>
	<rect x="111.3" y="309.3" class="st2" width="45" height="40.5"/>
	<rect x="130.9" y="339.4" class="st3" width="4.5" height="7.5"/>
	<rect x="130.9" y="325.9" class="st3" width="4.5" height="7.5"/>
	<rect x="130.9" y="312.4" class="st3" width="4.5" height="7.5"/>
	<rect x="111.3" y="349.9" class="st2" width="45" height="40.5"/>
	<rect x="130.9" y="379.9" class="st3" width="4.5" height="7.5"/>
	<rect x="130.9" y="366.4" class="st3" width="4.5" height="7.5"/>
	<rect x="130.9" y="353" class="st3" width="4.5" height="7.5"/>
	<rect x="111.3" y="390.4" class="st2" width="45" height="40.5"/>
	<rect x="130.9" y="420.4" class="st3" width="4.5" height="7.5"/>
	<rect x="130.9" y="406.9" class="st3" width="4.5" height="7.5"/>
	<rect x="130.9" y="393.5" class="st3" width="4.5" height="7.5"/>
	<rect x="111.3" y="431" class="st2" width="45" height="40.5"/>
	<rect x="130.9" y="461" class="st3" width="4.5" height="7.5"/>
	<rect x="130.9" y="447.5" class="st3" width="4.5" height="7.5"/>
	<rect x="130.9" y="434" class="st3" width="4.5" height="7.5"/>
	<rect x="111.3" y="471.5" class="st2" width="45" height="40.5"/>
	<rect x="130.9" y="501.5" class="st3" width="4.5" height="7.5"/>
	<rect x="130.9" y="488" class="st3" width="4.5" height="7.5"/>
	<rect x="130.9" y="474.6" class="st3" width="4.5" height="7.5"/>
	<path class="st2" d="M111.3,512v19.6c0,0.8,0,1.7,0.1,2.5s0.1,1.7,0.1,2.5c0.2,1.6,0.5,3.1,0.9,4.7c3.1,12.3,12.5,22,24.7,25.3
		l19.2-43.7V512H111.3L111.3,512z"/>
	<path class="st4" d="M138.4,539.9l-3.5,3.3c1.9,2.1,4.3,3.6,7,4.3l2.4-4.1C142.1,542.9,140,541.7,138.4,539.9L138.4,539.9z"/>
	<path class="st4" d="M135.4,528.2l-4.5,1.1c0,1.4,0.1,2.8,0.1,4.2s0.3,2.8,0.7,4.1l4.1-2.4c-0.3-1.1-0.4-2.3-0.4-3.5L135.4,528.2z"
		/>
	<rect x="130.9" y="515.1" class="st3" width="4.5" height="7.5"/>
</g>
<path class="st5" d="M375,141.9H188.5c-7,0-12.6,5.7-12.6,12.6l0,0V491c0,7,5.7,12.6,12.6,12.6l0,0h231.9c7,0,12.6-5.7,12.6-12.6
	l0,0V199.8L375,141.9z"/>
<linearGradient id="SVGID_1_" gradientUnits="userSpaceOnUse" x1="404.4985" y1="646.968" x2="405.2485" y2="655.178" gradientTransform="matrix(1 0 0 -1 0 852.36)">
	<stop  offset="0" style="stop-color:#FFFFFF;stop-opacity:0"/>
	<stop  offset="1" style="stop-color:#57757A"/>
</linearGradient>
<path class="st6" d="M376.9,193.8c7,11.9,56.1,13.3,56.1,13.3v-7.3L376.9,193.8z"/>
<path class="st7" d="M375,187.2c0,7,5.7,12.6,12.6,12.6l0,0H433l-58-58V187.2z"/>
<rect x="196.9" y="155.1" transform="matrix(0.7071 -0.7071 0.7071 0.7071 -59.8958 190.9042)" class="st8" width="7.1" height="25.3"/>
<rect x="187.8" y="164.2" transform="matrix(0.7071 -0.7071 0.7071 0.7071 -59.8929 190.9012)" class="st8" width="25.3" height="7.1"/>
<rect x="570.1" y="146.8" class="st9" width="7.1" height="25.3"/>
<rect x="561.1" y="155.9" class="st9" width="25.3" height="7.1"/>
<rect x="353.2" y="-1.2" transform="matrix(0.7071 -0.7071 0.7071 0.7071 96.4072 255.6036)" class="st9" width="7.1" height="25.3"/>
<rect x="344.1" y="7.9" transform="matrix(0.7071 -0.7071 0.7071 0.7071 96.4076 255.6124)" class="st9" width="25.3" height="7.1"/>
<ellipse transform="matrix(8.248048e-02 -0.9966 0.9966 8.248048e-02 -62.5951 907.2104)" class="st10" cx="461.4" cy="487.6" rx="59" ry="59"/>
<rect x="414" y="494.3" transform="matrix(0.6129 -0.7902 0.7902 0.6129 -209.7686 565.9207)" class="st11" width="117.3" height="5.5"/>
<rect x="425.6" y="497.7" transform="matrix(0.6129 -0.7902 0.7902 0.6129 -212.3892 578.5679)" class="st11" width="117.3" height="16.7"/>
<path class="st0" d="M472,479h-37.1v-37.1c0-12.6,10.2-22.7,22.7-22.7H472c12.6,0,22.7,10.2,22.7,22.7v14.3
	C494.7,468.8,484.6,479,472,479z"/>
<path class="st5" d="M423.9,511.7h-22.7c-11.1,0-1.5-37-1.5-48.1c0,0,44.3-46,44.3-34.9v63C444,502.8,435,511.8,423.9,511.7z"/>
<rect x="502.7" y="537.1" transform="matrix(0.7559 -0.6547 0.6547 0.7559 -232.7466 468.6037)" class="st12" width="18.7" height="18.7"/>
<path class="st13" d="M588.3,634.4L588.3,634.4c-6.4,5.5-16,4.8-21.5-1.5l0,0l-56.3-65c-2.1-2.4-1.9-6.1,0.6-8.3l14.1-12.3
	c2.4-2.1,6.1-1.9,8.3,0.6l56.3,65C595.3,619.2,594.7,628.8,588.3,634.4C588.3,634.3,588.3,634.4,588.3,634.4z"/>
<path class="st14" d="M415.3,434.4c-29.4,25.5-32.6,70-7.1,99.4c25.5,29.4,70,32.6,99.4,7.1c29.4-25.5,32.6-70,7.1-99.4
	C489.2,412.1,444.7,408.9,415.3,434.4L415.3,434.4z M500.1,532.2c-24.6,21.3-61.9,18.6-83.2-6c-21.3-24.6-18.6-61.9,6-83.2
	c24.6-21.3,61.9-18.6,83.2,6l0,0C527.4,473.7,524.7,510.9,500.1,532.2L500.1,532.2z"/>
<circle class="st15" cx="254.1" cy="261.7" r="6.4"/>
<circle class="st15" cx="351.8" cy="261.7" r="6.4"/>
<path class="st16" d="M330,273.9"/>
<path class="st16" d="M280.3,288.9c4.9,7.3,13.1,12.1,22.6,12.1c9.4,0,17.7-4.8,22.6-12.1"/>
<path class="st17" d="M392.4,342H218.5c-1.9,0-3.4-1.5-3.4-3.4l0,0c0-1.9,1.5-3.4,3.4-3.4h173.9c1.9,0,3.4,1.5,3.4,3.4l0,0
	C395.8,340.5,394.3,342,392.4,342z"/>
<path class="st17" d="M392.4,364.5H218.5c-1.9,0-3.4-1.5-3.4-3.4l0,0c0-1.9,1.5-3.4,3.4-3.4h173.9c1.9,0,3.4,1.5,3.4,3.4l0,0
	C395.8,363,394.3,364.5,392.4,364.5z"/>
<path class="st17" d="M392.4,387H218.5c-1.9,0-3.4-1.5-3.4-3.4l0,0c0-1.9,1.5-3.4,3.4-3.4h173.9c1.9,0,3.4,1.5,3.4,3.4l0,0
	C395.8,385.4,394.3,387,392.4,387z"/>
<path class="st17" d="M392.4,409.5H218.5c-1.9,0-3.4-1.5-3.4-3.4l0,0c0-1.9,1.5-3.4,3.4-3.4h173.9c1.9,0,3.4,1.5,3.4,3.4l0,0
	C395.8,407.9,394.3,409.5,392.4,409.5z"/>
<path class="st17" d="M392.4,431.9H218.5c-1.9,0-3.4-1.5-3.4-3.4l0,0c0-1.9,1.5-3.4,3.4-3.4h173.9c1.9,0,3.4,1.5,3.4,3.4l0,0
	C395.8,430.4,394.3,431.9,392.4,431.9z"/>
<path class="st17" d="M392.4,454.4H218.5c-1.9,0-3.4-1.5-3.4-3.4l0,0c0-1.9,1.5-3.4,3.4-3.4h173.9c1.9,0,3.4,1.5,3.4,3.4l0,0
	C395.8,452.9,394.3,454.4,392.4,454.4z"/>
<path class="st18" d="M51.3,48.9c-0.7-4.4-0.6-9,0.4-13.4c2.8-13.2,11.7-24.3,23.9-29.9c8.6-4.1,18.3-5,27.5-2.6
	c20.5,4.9,33.1,25.5,28.2,45.9c-0.2,0.8-0.4,1.5-0.6,2.3c-1.8,5.9-4.9,11.3-9.2,15.8c-1,1-1.2,2.5-0.5,3.7l0,0
	c2.4,4.5,0.8,10.1-3.7,12.5l-1.3,0.7c-5.1,3-11.6,1.4-14.7-3.7l-5.7-10c-2.1-3.9-0.7-8.7,3.2-10.8l2.4-1.4c4.4-2.6,7.6-6.8,8.9-11.8
	c1.5-4.8,0.9-10.1-1.7-14.4c-2.5-4.7-6.8-8.1-12-9.4c-10.2-2.8-20.7,3.2-23.6,13.4c-0.9,3.2-0.9,6.5-0.1,9.7c0.8,3.6-0.8,7.2-4,9
	l-1.9,1.1C60.3,59.4,52.4,55.9,51.3,48.9z M136.6,98.3L136.6,98.3c2.8,5.2,0.9,11.7-4.3,14.5l0,0c-5.1,3-11.6,1.4-14.7-3.7l0,0
	c-2.8-5.2-0.9-11.7,4.3-14.5l0,0C127,91.6,133.6,93.3,136.6,98.3L136.6,98.3z"/>
<path class="st19" d="M44.6,466.9c-21.7,0-39.2,17.6-39.2,39.3s17.6,39.2,39.3,39.2s39.2-17.6,39.2-39.3
	C83.9,484.4,66.3,466.9,44.6,466.9L44.6,466.9z M44.6,531.1c-13.8,0-25-11.2-25-25s11.2-25,25-25s25,11.2,25,25l0,0
	C69.6,519.9,58.4,531.1,44.6,531.1z"/>
<path class="st20" d="M636.9,317c-10,0-18.2,8.1-18.2,18.2c0,10,8.1,18.2,18.2,18.2s18.2-8.1,18.2-18.2
	C655.1,325.1,647,317,636.9,317L636.9,317z M636.9,346.7c-6.4,0-11.6-5.2-11.6-11.6s5.2-11.6,11.6-11.6c6.4,0,11.6,5.2,11.6,11.6
	S643.3,346.7,636.9,346.7L636.9,346.7z"/>
</svg>
