<svg xmlns="http://www.w3.org/2000/svg" width="184" height="58.845" viewBox="0 0 184 58.845">
  <g id="Group_3018" data-name="Group 3018" transform="translate(-71 -34)">
    <text id="EZTEAM" transform="translate(132 57)" fill="#fff" font-size="22" font-family="Roboto-Bold, Roboto" font-weight="700"><tspan x="0" y="0">EZTEAM</tspan></text>
    <text id="Planing_Pocker" data-name="Planing Pocker" transform="translate(132 85)" fill="#fff" font-size="18" font-family="Roboto-Bold, Roboto" font-weight="700"><tspan x="0" y="0">Planing Pocker</tspan></text>
    <g id="_15698-01" data-name="15698-01" transform="translate(70.67 38.825)">
      <path id="Path_27" data-name="Path 27" d="M20.47,32.7H13.39a.86.86,0,0,1-.47-1.58h0a6.84,6.84,0,0,0,1.75-2.59,4.86,4.86,0,0,1-3.62-.18,4,4,0,0,1-2.36-2.53c-.53-1.75,0-4.09,1.55-6.43a14.55,14.55,0,0,1,6.39-5.52.88.88,0,0,1,.6,0,14.55,14.55,0,0,1,6.39,5.52c1.52,2.34,2.08,4.68,1.55,6.43a4,4,0,0,1-2.37,2.54,4.86,4.86,0,0,1-3.6.17.157.157,0,0,0,.06.15A6.6,6.6,0,0,0,21,31.13a.87.87,0,0,1,.32,1A.85.85,0,0,1,20.47,32.7ZM15.29,31h3.29a13.051,13.051,0,0,1-.87-1.56,7.52,7.52,0,0,1-.47-2.34,1,1,0,0,1,.46-.93.84.84,0,0,1,1,.07,3,3,0,0,0,3.47.55,2.27,2.27,0,0,0,1.39-1.45c.38-1.24-.12-3.11-1.34-5a13.42,13.42,0,0,0-5.25-4.72,13.36,13.36,0,0,0-5.25,4.71c-1.22,1.88-1.72,3.75-1.35,5a2.28,2.28,0,0,0,1.4,1.45,3,3,0,0,0,3.49-.57.85.85,0,0,1,1-.14.87.87,0,0,1,.47.85,7.86,7.86,0,0,1-.41,2.3A13.11,13.11,0,0,1,15.29,31Z" fill="#fff"/>
      <path id="Path_28" data-name="Path 28" d="M9.33,10.22H5.18a.86.86,0,1,1,0-1.72H9.33a.86.86,0,1,1,0,1.72Z" fill="#fff"/>
      <path id="Path_29" data-name="Path 29" d="M4,13.29a.87.87,0,0,1-.81-1.16L6.25,4A1.06,1.06,0,0,1,8.31,4l2.94,8.13a.86.86,0,1,1-1.62.58L7.26,6.17,4.8,12.73a.86.86,0,0,1-.8.56Z" fill="#fff"/>
      <path id="Path_30" data-name="Path 30" d="M29.51,42.71H25.36a.86.86,0,1,1,0-1.72h4.15a.86.86,0,0,1,0,1.72Z" fill="#fff"/>
      <path id="Path_31" data-name="Path 31" d="M27.42,48h0a1.09,1.09,0,0,1-1-.82l-2.95-8.13A.86.86,0,0,1,24,38a.85.85,0,0,1,1.1.52L27.43,45l2.46-6.56A.87.87,0,0,1,31,38a.86.86,0,0,1,.51,1.1l-3.06,8.14a1.1,1.1,0,0,1-1.03.76Z" fill="#fff"/>
      <path id="Path_32" data-name="Path 32" d="M31.55,50.81H3.33a3,3,0,0,1-3-3V3.33a3,3,0,0,1,3-3H31.55a3,3,0,0,1,3,3V47.82a3,3,0,0,1-3,2.99ZM3.33,1.38a2,2,0,0,0-1.95,2V47.82a2,2,0,0,0,2,2H31.55a2,2,0,0,0,2-2V3.33a2,2,0,0,0-2-1.95Z" fill="#fff"/>
      <path id="Path_33" data-name="Path 33" d="M34.82,54l-3.45-.41a.52.52,0,0,1-.45-.58.5.5,0,0,1,.57-.45l3.45.42a2,2,0,0,0,2.18-1.71L42.44,7.06a2,2,0,0,0-1.71-2.17l-3.56-.43a.52.52,0,0,1-.45-.58.51.51,0,0,1,.57-.45l3.56.43a3,3,0,0,1,2.61,3.32L38.14,51.36A3,3,0,0,1,34.82,54Z" fill="#fff"/>
    </g>
  </g>
</svg>
